<?xml version="1.0" encoding="utf-8" ?>
<svg baseProfile="full" height="860.0px" version="1.1" viewBox="-100.0,-700.0,730.0,860.0" width="730.0px" xmlns="http://www.w3.org/2000/svg" xmlns:ev="http://www.w3.org/2001/xml-events" xmlns:xlink="http://www.w3.org/1999/xlink"><defs /><line stroke="black" stroke-width="10.0" x1="0.0" x2="300.0" y1="0.0" y2="0.0" /><line stroke="black" stroke-width="10.0" x1="300.0" x2="300.0" y1="0.0" y2="-240.0" /><line stroke="black" stroke-width="10.0" x1="300.0" x2="0.0" y1="-240.0" y2="-240.0" /><line stroke="black" stroke-width="10.0" x1="0.0" x2="0.0" y1="-240.0" y2="0.0" /><line stroke="black" stroke-width="10.0" x1="310.0" x2="510.0" y1="0.0" y2="0.0" /><line stroke="black" stroke-width="10.0" x1="510.0" x2="510.0" y1="0.0" y2="-160.0" /><line stroke="black" stroke-width="10.0" x1="510.0" x2="310.0" y1="-160.0" y2="-160.0" /><line stroke="black" stroke-width="10.0" x1="310.0" x2="310.0" y1="-160.0" y2="0.0" /><line stroke="black" stroke-width="10.0" x1="0.0" x2="280.0" y1="-250.0" y2="-250.0" /><line stroke="black" stroke-width="10.0" x1="280.0" x2="280.0" y1="-250.0" y2="-490.0" /><line stroke="black" stroke-width="10.0" x1="280.0" x2="0.0" y1="-490.0" y2="-490.0" /><line stroke="black" stroke-width="10.0" x1="0.0" x2="0.0" y1="-490.0" y2="-250.0" /><line stroke="black" stroke-width="10.0" x1="290.0" x2="530.0" y1="-250.0" y2="-250.0" /><line stroke="black" stroke-width="10.0" x1="530.0" x2="530.0" y1="-250.0" y2="-450.0" /><line stroke="black" stroke-width="10.0" x1="530.0" x2="290.0" y1="-450.0" y2="-450.0" /><line stroke="black" stroke-width="10.0" x1="290.0" x2="290.0" y1="-450.0" y2="-250.0" /><line stroke="black" stroke-width="10.0" x1="0.0" x2="140.0" y1="-500.0" y2="-500.0" /><line stroke="black" stroke-width="10.0" x1="140.0" x2="140.0" y1="-500.0" y2="-600.0" /><line stroke="black" stroke-width="10.0" x1="140.0" x2="0.0" y1="-600.0" y2="-600.0" /><line stroke="black" stroke-width="10.0" x1="0.0" x2="0.0" y1="-600.0" y2="-500.0" /><line stroke="black" stroke-width="10.0" x1="150.0" x2="290.0" y1="-500.0" y2="-500.0" /><line stroke="black" stroke-width="10.0" x1="290.0" x2="290.0" y1="-500.0" y2="-600.0" /><line stroke="black" stroke-width="10.0" x1="290.0" x2="150.0" y1="-600.0" y2="-600.0" /><line stroke="black" stroke-width="10.0" x1="150.0" x2="150.0" y1="-600.0" y2="-500.0" /><rect fill="none" height="240.0" stroke="gray" stroke-width="0.5" width="300.0" x="0.0" y="-240.0" /><text fill="black" font-size="16.0px" text-anchor="middle" x="150.0" y="-120.0">Living Room</text><rect fill="none" height="160.0" stroke="gray" stroke-width="0.5" width="200.0" x="310.0" y="-160.0" /><text fill="black" font-size="16.0px" text-anchor="middle" x="410.0" y="-80.0">Kitchen</text><rect fill="none" height="240.0" stroke="gray" stroke-width="0.5" width="280.0" x="0.0" y="-490.0" /><text fill="black" font-size="16.0px" text-anchor="middle" x="140.0" y="-370.0">Master Bedroom</text><rect fill="none" height="200.0" stroke="gray" stroke-width="0.5" width="240.0" x="290.0" y="-450.0" /><text fill="black" font-size="16.0px" text-anchor="middle" x="410.0" y="-350.0">Bedroom 2</text><rect fill="none" height="100.0" stroke="gray" stroke-width="0.5" width="140.0" x="0.0" y="-600.0" /><text fill="black" font-size="16.0px" text-anchor="middle" x="70.0" y="-550.0">Master Bathroom</text><rect fill="none" height="100.0" stroke="gray" stroke-width="0.5" width="140.0" x="150.0" y="-600.0" /><text fill="black" font-size="16.0px" text-anchor="middle" x="220.0" y="-550.0">Bathroom 2</text></svg>