<?xml version="1.0" encoding="utf-8" ?>
<svg baseProfile="full" height="824.0px" version="1.1" viewBox="-100.0,-664.0,568.0,824.0" width="568.0px" xmlns="http://www.w3.org/2000/svg" xmlns:ev="http://www.w3.org/2001/xml-events" xmlns:xlink="http://www.w3.org/1999/xlink"><defs /><line stroke="black" stroke-width="10.0" x1="0.0" x2="256.0" y1="0.0" y2="0.0" /><line stroke="black" stroke-width="10.0" x1="256.0" x2="256.0" y1="0.0" y2="-204.0" /><line stroke="black" stroke-width="10.0" x1="256.0" x2="0.0" y1="-204.0" y2="-204.0" /><line stroke="black" stroke-width="10.0" x1="0.0" x2="0.0" y1="-204.0" y2="0.0" /><line stroke="black" stroke-width="10.0" x1="0.0" x2="170.0" y1="-214.0" y2="-214.0" /><line stroke="black" stroke-width="10.0" x1="170.0" x2="170.0" y1="-214.0" y2="-350.0" /><line stroke="black" stroke-width="10.0" x1="170.0" x2="0.0" y1="-350.0" y2="-350.0" /><line stroke="black" stroke-width="10.0" x1="0.0" x2="0.0" y1="-350.0" y2="-214.0" /><line stroke="black" stroke-width="10.0" x1="0.0" x2="238.0" y1="-360.0" y2="-360.0" /><line stroke="black" stroke-width="10.0" x1="238.0" x2="238.0" y1="-360.0" y2="-564.0" /><line stroke="black" stroke-width="10.0" x1="238.0" x2="0.0" y1="-564.0" y2="-564.0" /><line stroke="black" stroke-width="10.0" x1="0.0" x2="0.0" y1="-564.0" y2="-360.0" /><line stroke="black" stroke-width="10.0" x1="248.0" x2="368.0" y1="-360.0" y2="-360.0" /><line stroke="black" stroke-width="10.0" x1="368.0" x2="368.0" y1="-360.0" y2="-444.0" /><line stroke="black" stroke-width="10.0" x1="368.0" x2="248.0" y1="-444.0" y2="-444.0" /><line stroke="black" stroke-width="10.0" x1="248.0" x2="248.0" y1="-444.0" y2="-360.0" /><rect fill="none" height="204.0" stroke="gray" stroke-width="0.5" width="256.0" x="0.0" y="-204.0" /><text fill="black" font-size="16.0px" text-anchor="middle" x="128.0" y="-102.0">Living Room</text><rect fill="none" height="136.0" stroke="gray" stroke-width="0.5" width="170.0" x="0.0" y="-350.0" /><text fill="black" font-size="16.0px" text-anchor="middle" x="85.0" y="-282.0">Kitchen</text><rect fill="none" height="204.0" stroke="gray" stroke-width="0.5" width="238.0" x="0.0" y="-564.0" /><text fill="black" font-size="16.0px" text-anchor="middle" x="119.0" y="-462.0">Master Bedroom</text><rect fill="none" height="84.0" stroke="gray" stroke-width="0.5" width="120.0" x="248.0" y="-444.0" /><text fill="black" font-size="16.0px" text-anchor="middle" x="308.0" y="-402.0">Bathroom 1</text></svg>